<mxfile host="Electron" agent="Mozilla/5.0 (Windows NT 10.0; Win64; x64) AppleWebKit/537.36 (KHTML, like Gecko) draw.io/25.0.2 Chrome/128.0.6613.186 Electron/32.2.5 Safari/537.36" version="25.0.2">
  <diagram name="第 1 页" id="_YLh7jijnisK5qnL3LQV">
    <mxGraphModel dx="2218" dy="2038" grid="1" gridSize="10" guides="1" tooltips="1" connect="1" arrows="0" fold="1" page="0" pageScale="1" pageWidth="827" pageHeight="1169" math="0" shadow="0">
      <root>
        <mxCell id="0" />
        <mxCell id="1" parent="0" />
        <mxCell id="2eZoqWFppm1931p4ZgLj-22" value="" style="rounded=1;whiteSpace=wrap;html=1;" parent="1" vertex="1">
          <mxGeometry x="-540" y="-300" width="150" height="230" as="geometry" />
        </mxCell>
        <mxCell id="2eZoqWFppm1931p4ZgLj-3" value="bin/" style="rounded=1;whiteSpace=wrap;html=1;" parent="1" vertex="1">
          <mxGeometry x="-80" y="160" width="90" height="40" as="geometry" />
        </mxCell>
        <mxCell id="2eZoqWFppm1931p4ZgLj-4" value="conf/" style="rounded=1;whiteSpace=wrap;html=1;" parent="1" vertex="1">
          <mxGeometry x="-80" y="250" width="90" height="40" as="geometry" />
        </mxCell>
        <mxCell id="2eZoqWFppm1931p4ZgLj-5" value="flink" style="rounded=1;whiteSpace=wrap;html=1;" parent="1" vertex="1">
          <mxGeometry x="70" y="140" width="70" height="30" as="geometry" />
        </mxCell>
        <mxCell id="2eZoqWFppm1931p4ZgLj-7" value="" style="curved=1;endArrow=classic;html=1;rounded=0;exitX=1;exitY=0.5;exitDx=0;exitDy=0;entryX=0;entryY=0.5;entryDx=0;entryDy=0;" parent="1" source="2eZoqWFppm1931p4ZgLj-3" target="2eZoqWFppm1931p4ZgLj-5" edge="1">
          <mxGeometry width="50" height="50" relative="1" as="geometry">
            <mxPoint x="90" y="290" as="sourcePoint" />
            <mxPoint x="140" y="240" as="targetPoint" />
            <Array as="points">
              <mxPoint x="40" y="160" />
            </Array>
          </mxGeometry>
        </mxCell>
        <mxCell id="2eZoqWFppm1931p4ZgLj-8" value="flink-conf.yaml" style="rounded=1;whiteSpace=wrap;html=1;" parent="1" vertex="1">
          <mxGeometry x="70" y="230" width="100" height="30" as="geometry" />
        </mxCell>
        <mxCell id="2eZoqWFppm1931p4ZgLj-9" value="" style="curved=1;endArrow=classic;html=1;rounded=0;exitX=1;exitY=0.5;exitDx=0;exitDy=0;entryX=0;entryY=0.5;entryDx=0;entryDy=0;" parent="1" target="2eZoqWFppm1931p4ZgLj-8" edge="1">
          <mxGeometry width="50" height="50" relative="1" as="geometry">
            <mxPoint x="10" y="270" as="sourcePoint" />
            <mxPoint x="70" y="255" as="targetPoint" />
            <Array as="points">
              <mxPoint x="40" y="250" />
            </Array>
          </mxGeometry>
        </mxCell>
        <mxCell id="2eZoqWFppm1931p4ZgLj-11" value="flink-conf.yaml" style="rounded=1;whiteSpace=wrap;html=1;" parent="1" vertex="1">
          <mxGeometry x="70" y="280" width="100" height="30" as="geometry" />
        </mxCell>
        <mxCell id="2eZoqWFppm1931p4ZgLj-12" value="flink-conf.yaml" style="rounded=1;whiteSpace=wrap;html=1;" parent="1" vertex="1">
          <mxGeometry x="70" y="330" width="100" height="30" as="geometry" />
        </mxCell>
        <mxCell id="2eZoqWFppm1931p4ZgLj-13" value="bin/" style="rounded=1;whiteSpace=wrap;html=1;" parent="1" vertex="1">
          <mxGeometry x="-510" y="-290" width="90" height="40" as="geometry" />
        </mxCell>
        <mxCell id="2eZoqWFppm1931p4ZgLj-14" value="conf/" style="rounded=1;whiteSpace=wrap;html=1;" parent="1" vertex="1">
          <mxGeometry x="-510" y="-230" width="90" height="40" as="geometry" />
        </mxCell>
        <mxCell id="2eZoqWFppm1931p4ZgLj-21" value="log/" style="rounded=1;whiteSpace=wrap;html=1;" parent="1" vertex="1">
          <mxGeometry x="-510" y="-170" width="90" height="40" as="geometry" />
        </mxCell>
        <mxCell id="2eZoqWFppm1931p4ZgLj-23" value="Flink 1.15.4" style="text;html=1;align=center;verticalAlign=middle;whiteSpace=wrap;rounded=0;" parent="1" vertex="1">
          <mxGeometry x="-550" y="-330" width="80" height="30" as="geometry" />
        </mxCell>
        <mxCell id="2eZoqWFppm1931p4ZgLj-24" value="... 其他目录" style="rounded=1;whiteSpace=wrap;html=1;" parent="1" vertex="1">
          <mxGeometry x="-510" y="-120" width="90" height="40" as="geometry" />
        </mxCell>
        <mxCell id="lZscCeVsL3bFDZBbQScc-2" value="" style="rounded=1;whiteSpace=wrap;html=1;fillColor=none;dashed=1;" vertex="1" parent="1">
          <mxGeometry x="-10" y="-540" width="250" height="180" as="geometry" />
        </mxCell>
        <mxCell id="lZscCeVsL3bFDZBbQScc-13" style="edgeStyle=orthogonalEdgeStyle;rounded=0;orthogonalLoop=1;jettySize=auto;html=1;dashed=1;" edge="1" parent="1" source="lZscCeVsL3bFDZBbQScc-3" target="lZscCeVsL3bFDZBbQScc-11">
          <mxGeometry relative="1" as="geometry" />
        </mxCell>
        <mxCell id="lZscCeVsL3bFDZBbQScc-3" value="JobManager" style="rounded=1;whiteSpace=wrap;html=1;" vertex="1" parent="1">
          <mxGeometry x="20" y="-510" width="130" height="40" as="geometry" />
        </mxCell>
        <mxCell id="lZscCeVsL3bFDZBbQScc-15" style="edgeStyle=orthogonalEdgeStyle;rounded=0;orthogonalLoop=1;jettySize=auto;html=1;dashed=1;" edge="1" parent="1" source="lZscCeVsL3bFDZBbQScc-4" target="lZscCeVsL3bFDZBbQScc-14">
          <mxGeometry relative="1" as="geometry" />
        </mxCell>
        <mxCell id="lZscCeVsL3bFDZBbQScc-4" value="TaskManager" style="rounded=1;whiteSpace=wrap;html=1;" vertex="1" parent="1">
          <mxGeometry x="20" y="-430" width="130" height="40" as="geometry" />
        </mxCell>
        <mxCell id="lZscCeVsL3bFDZBbQScc-5" value="" style="shape=flexArrow;endArrow=classic;html=1;rounded=0;" edge="1" parent="1">
          <mxGeometry width="50" height="50" relative="1" as="geometry">
            <mxPoint x="-130" y="-455.5" as="sourcePoint" />
            <mxPoint x="-50" y="-455.5" as="targetPoint" />
          </mxGeometry>
        </mxCell>
        <mxCell id="lZscCeVsL3bFDZBbQScc-6" value="Kubernetes" style="text;html=1;align=center;verticalAlign=middle;whiteSpace=wrap;rounded=0;fontStyle=1" vertex="1" parent="1">
          <mxGeometry x="-20" y="-570" width="90" height="30" as="geometry" />
        </mxCell>
        <mxCell id="lZscCeVsL3bFDZBbQScc-7" value="POD" style="text;html=1;align=center;verticalAlign=middle;whiteSpace=wrap;rounded=0;fillColor=#dae8fc;strokeColor=#6c8ebf;" vertex="1" parent="1">
          <mxGeometry x="120" y="-480" width="60" height="30" as="geometry" />
        </mxCell>
        <mxCell id="lZscCeVsL3bFDZBbQScc-8" value="POD" style="text;html=1;align=center;verticalAlign=middle;whiteSpace=wrap;rounded=0;fillColor=#dae8fc;strokeColor=#6c8ebf;" vertex="1" parent="1">
          <mxGeometry x="120" y="-400" width="60" height="30" as="geometry" />
        </mxCell>
        <mxCell id="lZscCeVsL3bFDZBbQScc-9" value="Flink Job Jar" style="rounded=1;whiteSpace=wrap;html=1;" vertex="1" parent="1">
          <mxGeometry x="-240" y="-470" width="100" height="30" as="geometry" />
        </mxCell>
        <mxCell id="lZscCeVsL3bFDZBbQScc-11" value="JobManager 做了哪些事？" style="text;html=1;align=center;verticalAlign=middle;whiteSpace=wrap;rounded=0;" vertex="1" parent="1">
          <mxGeometry x="260" y="-505" width="160" height="30" as="geometry" />
        </mxCell>
        <mxCell id="lZscCeVsL3bFDZBbQScc-14" value="TaskManager 做了哪些事？" style="text;html=1;align=center;verticalAlign=middle;whiteSpace=wrap;rounded=0;" vertex="1" parent="1">
          <mxGeometry x="260" y="-425" width="160" height="30" as="geometry" />
        </mxCell>
        <mxCell id="lZscCeVsL3bFDZBbQScc-16" value="Dolphinscheduler" style="rounded=1;whiteSpace=wrap;html=1;" vertex="1" parent="1">
          <mxGeometry x="-370" y="-820" width="110" height="60" as="geometry" />
        </mxCell>
        <mxCell id="lZscCeVsL3bFDZBbQScc-17" value="Seatunnel" style="rounded=1;whiteSpace=wrap;html=1;" vertex="1" parent="1">
          <mxGeometry x="-170" y="-820" width="140" height="60" as="geometry" />
        </mxCell>
        <mxCell id="lZscCeVsL3bFDZBbQScc-18" value="" style="endArrow=classic;html=1;rounded=0;entryX=0;entryY=0.5;entryDx=0;entryDy=0;" edge="1" parent="1" target="lZscCeVsL3bFDZBbQScc-17">
          <mxGeometry width="50" height="50" relative="1" as="geometry">
            <mxPoint x="-260" y="-790.5" as="sourcePoint" />
            <mxPoint x="-180" y="-790.5" as="targetPoint" />
          </mxGeometry>
        </mxCell>
        <mxCell id="lZscCeVsL3bFDZBbQScc-19" value="" style="rounded=1;whiteSpace=wrap;html=1;fillColor=none;dashed=1;" vertex="1" parent="1">
          <mxGeometry x="70" y="-880" width="250" height="180" as="geometry" />
        </mxCell>
        <mxCell id="lZscCeVsL3bFDZBbQScc-21" value="JobManager" style="rounded=1;whiteSpace=wrap;html=1;" vertex="1" parent="1">
          <mxGeometry x="100" y="-850" width="130" height="40" as="geometry" />
        </mxCell>
        <mxCell id="lZscCeVsL3bFDZBbQScc-23" value="TaskManager" style="rounded=1;whiteSpace=wrap;html=1;" vertex="1" parent="1">
          <mxGeometry x="100" y="-770" width="130" height="40" as="geometry" />
        </mxCell>
        <mxCell id="lZscCeVsL3bFDZBbQScc-24" value="Kubernetes" style="text;html=1;align=center;verticalAlign=middle;whiteSpace=wrap;rounded=0;fontStyle=1" vertex="1" parent="1">
          <mxGeometry x="60" y="-910" width="90" height="30" as="geometry" />
        </mxCell>
        <mxCell id="lZscCeVsL3bFDZBbQScc-25" value="POD" style="text;html=1;align=center;verticalAlign=middle;whiteSpace=wrap;rounded=0;fillColor=#dae8fc;strokeColor=#6c8ebf;" vertex="1" parent="1">
          <mxGeometry x="200" y="-820" width="60" height="30" as="geometry" />
        </mxCell>
        <mxCell id="lZscCeVsL3bFDZBbQScc-26" value="POD" style="text;html=1;align=center;verticalAlign=middle;whiteSpace=wrap;rounded=0;fillColor=#dae8fc;strokeColor=#6c8ebf;" vertex="1" parent="1">
          <mxGeometry x="200" y="-740" width="60" height="30" as="geometry" />
        </mxCell>
        <mxCell id="lZscCeVsL3bFDZBbQScc-27" value="" style="endArrow=classic;html=1;rounded=0;entryX=0;entryY=0.5;entryDx=0;entryDy=0;" edge="1" parent="1">
          <mxGeometry width="50" height="50" relative="1" as="geometry">
            <mxPoint x="-30" y="-795" as="sourcePoint" />
            <mxPoint x="60" y="-794.5" as="targetPoint" />
          </mxGeometry>
        </mxCell>
        <mxCell id="lZscCeVsL3bFDZBbQScc-28" value="./flink run" style="text;html=1;align=center;verticalAlign=middle;whiteSpace=wrap;rounded=0;fontStyle=1;fillColor=#f8cecc;strokeColor=#b85450;" vertex="1" parent="1">
          <mxGeometry x="-20" y="-820" width="60" height="30" as="geometry" />
        </mxCell>
      </root>
    </mxGraphModel>
  </diagram>
</mxfile>
